<svg width="32" height="32" viewBox="0 0 32 32" fill="none" xmlns="http://www.w3.org/2000/svg">
<path d="M14.3633 19.469C13.9304 19.9111 13.5193 20.3068 13.1421 20.6562C13.5729 20.2522 13.9799 19.8565 14.3633 19.469Z" fill="#00051F"/>
<path d="M31.4718 20.3627C31.5708 21.015 31.3914 21.5066 31.2121 22.0847C30.8431 23.2717 30.1038 24.3094 29.1025 25.0459C28.1012 25.7825 26.8904 26.1791 25.6474 26.1779H12.4836C13.1019 25.3896 21.3069 15.4317 28.4823 17.6298C29.2174 17.8554 29.9122 18.1955 30.5413 18.6377C31.0304 19.0965 31.357 19.702 31.4718 20.3627Z" fill="#00051F"/>
<path d="M18.4193 14.5536C17.2094 16.3044 15.8525 17.9488 14.3633 19.4691C13.9799 19.8566 13.5729 20.2523 13.1421 20.6563C12.8329 20.9654 12.5238 21.2127 12.2425 21.4631C12.1343 21.5621 10.7152 22.7987 9.40135 23.7261C7.27746 25.2348 6.21398 25.9861 5.2556 26.0077C2.64326 26.0602 0.0185492 22.8852 0 20.3749C0.00933518 19.7821 0.0998308 19.1934 0.268963 18.6251C0.639022 17.4477 1.3741 16.4185 2.36784 15.6866C3.36157 14.9546 4.56242 14.5578 5.79662 14.5536H8.26985C8.23401 14.254 8.21543 13.9526 8.2142 13.6509C8.2142 11.4559 9.75996 7.77695 13.1236 6.51252C13.6708 6.3023 15.9059 5.45522 17.8969 6.54343C18.3667 6.80046 18.7857 7.14094 19.1335 7.54818C19.4661 7.98789 19.7136 8.48595 19.8631 9.01666C20.4505 11.088 19.3313 13.0882 18.4193 14.5536Z" fill="#00051F"/>
<path d="M18.4193 14.5535C17.2532 16.337 15.8929 17.9856 14.3632 19.4691C15.8524 17.9488 17.2094 16.3043 18.4193 14.5535Z" fill="#00051F"/>
<path d="M25.2393 8.22518C25.0322 7.97786 24.4107 8.55598 22.63 8.97953C22.4262 9.01485 22.2353 9.10336 22.0766 9.23613C21.6963 9.5762 21.3686 10.4109 21.8787 11.0292C22.3888 11.6476 23.2545 11.4992 23.6626 11.1931C23.8313 11.0558 23.9596 10.8752 24.0336 10.6706C24.7694 8.97953 25.4464 8.46942 25.2393 8.22518Z" fill="#00051F"/>
<path d="M29.283 12.9925C29.0759 12.7452 28.4514 13.3233 26.6706 13.7469C26.4668 13.7822 26.2759 13.8707 26.1172 14.0035C25.737 14.3435 25.4093 15.1752 25.9194 15.7966C26.4295 16.418 27.2951 16.2665 27.7032 15.9604C27.8723 15.8235 28.0006 15.6428 28.0742 15.438C28.8131 13.7469 29.4902 13.2368 29.283 12.9925Z" fill="#00051F"/>
<path d="M23.3752 13.8332C23.1618 13.5735 22.5435 14.1424 20.7659 14.5752C20.5618 14.6098 20.3707 14.6984 20.2125 14.8318C19.8291 15.175 19.5014 16.0066 20.0115 16.6249C20.5216 17.2432 21.3873 17.0948 21.7985 16.7888C21.9674 16.6523 22.0948 16.4713 22.1664 16.2663C22.9052 14.5752 23.5823 14.0682 23.3752 13.8332Z" fill="#00051F"/>
</svg>
